<mxfile host="app.diagrams.net" modified="2022-12-14T23:31:32.747Z" agent="5.0 (Macintosh; Intel Mac OS X 10_15_7) AppleWebKit/537.36 (KHTML, like Gecko) Chrome/108.0.0.0 Safari/537.36" etag="2peTPUlq4iXGzgw8PJSK" version="20.6.0" type="github">
  <diagram id="3228e29e-7158-1315-38df-8450db1d8a1d" name="Page-1">
    <mxGraphModel dx="1448" dy="1775" grid="0" gridSize="10" guides="1" tooltips="1" connect="1" arrows="1" fold="1" page="1" pageScale="1" pageWidth="1500" pageHeight="800" background="#eff1f3" math="0" shadow="1">
      <root>
        <mxCell id="0" />
        <mxCell id="1" parent="0" />
        <mxCell id="7JEHl0EdUxoz4Z7pDytS-9" value="&lt;font style=&quot;font-size: 50px&quot;&gt;ip头部&lt;/font&gt;" style="rounded=1;whiteSpace=wrap;html=1;strokeColor=#5A6EAB;fillColor=#5A6EAB;dashed=1;strokeWidth=5;" parent="1" vertex="1">
          <mxGeometry x="1002" y="355" width="330" height="120" as="geometry" />
        </mxCell>
        <mxCell id="7JEHl0EdUxoz4Z7pDytS-19" value="&lt;font style=&quot;font-size: 50px&quot;&gt;mac头部&lt;/font&gt;" style="rounded=1;whiteSpace=wrap;html=1;fillColor=#F19C99;dashed=1;strokeWidth=5;strokeColor=#F19C99;" parent="1" vertex="1">
          <mxGeometry x="660" y="355" width="340" height="120" as="geometry" />
        </mxCell>
        <mxCell id="7JEHl0EdUxoz4Z7pDytS-20" value="&lt;font style=&quot;font-size: 50px&quot;&gt;MSS和MTU的区别&lt;/font&gt;" style="text;html=1;strokeColor=none;fillColor=none;align=center;verticalAlign=middle;whiteSpace=wrap;rounded=0;" parent="1" vertex="1">
          <mxGeometry x="1112" y="100" width="460" height="20" as="geometry" />
        </mxCell>
        <mxCell id="tF05Ronlh-qizBjIyaqp-3" value="&lt;span style=&quot;font-size: 50px&quot;&gt;tcp头部&lt;/span&gt;" style="rounded=1;whiteSpace=wrap;html=1;strokeColor=#FDD276;fillColor=#FDD276;dashed=1;strokeWidth=5;" parent="1" vertex="1">
          <mxGeometry x="1332" y="355" width="330" height="120" as="geometry" />
        </mxCell>
        <mxCell id="tF05Ronlh-qizBjIyaqp-4" value="&lt;span style=&quot;font-size: 50px&quot;&gt;数据&lt;/span&gt;" style="rounded=1;whiteSpace=wrap;html=1;fillColor=#4A919B;strokeColor=#4A919B;dashed=1;strokeWidth=5;" parent="1" vertex="1">
          <mxGeometry x="1662" y="355" width="330" height="120" as="geometry" />
        </mxCell>
        <mxCell id="tF05Ronlh-qizBjIyaqp-5" value="" style="shape=curlyBracket;whiteSpace=wrap;html=1;rounded=1;fillColor=#F19C99;direction=north;strokeWidth=5;strokeColor=#4A919B;" parent="1" vertex="1">
          <mxGeometry x="1662" y="535" width="330" height="55" as="geometry" />
        </mxCell>
        <mxCell id="tF05Ronlh-qizBjIyaqp-6" value="" style="shape=curlyBracket;whiteSpace=wrap;html=1;rounded=1;fillColor=#F19C99;direction=south;strokeWidth=5;" parent="1" vertex="1">
          <mxGeometry x="1007" y="255" width="985" height="55" as="geometry" />
        </mxCell>
        <mxCell id="tF05Ronlh-qizBjIyaqp-7" value="&lt;span style=&quot;font-size: 50px&quot;&gt;FCS&lt;/span&gt;" style="rounded=1;whiteSpace=wrap;html=1;fillColor=#F19C99;strokeColor=#F19C99;dashed=1;strokeWidth=5;" parent="1" vertex="1">
          <mxGeometry x="1992" y="355" width="330" height="120" as="geometry" />
        </mxCell>
        <mxCell id="tF05Ronlh-qizBjIyaqp-8" value="&lt;font style=&quot;font-size: 50px&quot;&gt;MTU（1500Byte）&lt;br&gt;&lt;/font&gt;" style="text;html=1;strokeColor=none;fillColor=none;align=center;verticalAlign=middle;whiteSpace=wrap;rounded=0;dashed=1;" parent="1" vertex="1">
          <mxGeometry x="1202" y="195" width="582.5" height="20" as="geometry" />
        </mxCell>
        <mxCell id="tF05Ronlh-qizBjIyaqp-10" value="&lt;font style=&quot;font-size: 50px&quot;&gt;MSS（1460Byte）&lt;br&gt;&lt;/font&gt;" style="text;html=1;strokeColor=none;fillColor=none;align=center;verticalAlign=middle;whiteSpace=wrap;rounded=0;dashed=1;" parent="1" vertex="1">
          <mxGeometry x="1707" y="605" width="240" height="140" as="geometry" />
        </mxCell>
        <mxCell id="tF05Ronlh-qizBjIyaqp-13" value="" style="shape=curlyBracket;whiteSpace=wrap;html=1;rounded=1;fillColor=#F19C99;direction=north;strokeWidth=5;strokeColor=#FDD276;" parent="1" vertex="1">
          <mxGeometry x="1332" y="535" width="310" height="55" as="geometry" />
        </mxCell>
        <mxCell id="tF05Ronlh-qizBjIyaqp-14" value="&lt;font style=&quot;font-size: 50px&quot;&gt;20Byte&lt;br&gt;&lt;/font&gt;" style="text;html=1;fillColor=none;align=center;verticalAlign=middle;whiteSpace=wrap;rounded=0;dashed=1;strokeColor=#FDD276;" parent="1" vertex="1">
          <mxGeometry x="1392" y="625" width="180" height="20" as="geometry" />
        </mxCell>
        <mxCell id="tF05Ronlh-qizBjIyaqp-15" value="" style="shape=curlyBracket;whiteSpace=wrap;html=1;rounded=1;fillColor=#F19C99;direction=north;strokeWidth=5;fontColor=#5A6EAB;strokeColor=#5A6EAB;" parent="1" vertex="1">
          <mxGeometry x="1007" y="535" width="310" height="55" as="geometry" />
        </mxCell>
        <mxCell id="tF05Ronlh-qizBjIyaqp-16" value="&lt;font style=&quot;font-size: 50px&quot;&gt;20Byte&lt;br&gt;&lt;/font&gt;" style="text;html=1;strokeColor=none;fillColor=none;align=center;verticalAlign=middle;whiteSpace=wrap;rounded=0;dashed=1;" parent="1" vertex="1">
          <mxGeometry x="1067" y="625" width="180" height="20" as="geometry" />
        </mxCell>
      </root>
    </mxGraphModel>
  </diagram>
</mxfile>
